<mxfile host="app.diagrams.net" modified="2023-05-08T03:46:07.305Z" agent="Mozilla/5.0 (Windows NT 10.0; Win64; x64) AppleWebKit/537.36 (KHTML, like Gecko) Chrome/112.0.0.0 Safari/537.36" etag="_7zl9ejAG85l4nEHpuep" version="21.2.6" type="device">
  <diagram id="C5RBs43oDa-KdzZeNtuy" name="Page-1">
    <mxGraphModel dx="733" dy="363" grid="1" gridSize="10" guides="1" tooltips="1" connect="1" arrows="1" fold="1" page="1" pageScale="1" pageWidth="827" pageHeight="1169" math="0" shadow="0">
      <root>
        <mxCell id="WIyWlLk6GJQsqaUBKTNV-0" />
        <mxCell id="WIyWlLk6GJQsqaUBKTNV-1" parent="WIyWlLk6GJQsqaUBKTNV-0" />
        <mxCell id="rinu5d2e3UcqFR0L71iZ-75" value="" style="edgeStyle=orthogonalEdgeStyle;rounded=0;orthogonalLoop=1;jettySize=auto;html=1;" edge="1" parent="WIyWlLk6GJQsqaUBKTNV-1" source="rinu5d2e3UcqFR0L71iZ-73">
          <mxGeometry relative="1" as="geometry">
            <mxPoint x="169.9655172413793" y="90" as="targetPoint" />
          </mxGeometry>
        </mxCell>
        <mxCell id="rinu5d2e3UcqFR0L71iZ-73" value="START" style="ellipse;whiteSpace=wrap;html=1;" vertex="1" parent="WIyWlLk6GJQsqaUBKTNV-1">
          <mxGeometry x="110" y="20" width="120" height="40" as="geometry" />
        </mxCell>
        <mxCell id="rinu5d2e3UcqFR0L71iZ-78" value="" style="edgeStyle=orthogonalEdgeStyle;rounded=0;orthogonalLoop=1;jettySize=auto;html=1;" edge="1" parent="WIyWlLk6GJQsqaUBKTNV-1" source="rinu5d2e3UcqFR0L71iZ-76" target="rinu5d2e3UcqFR0L71iZ-77">
          <mxGeometry relative="1" as="geometry" />
        </mxCell>
        <mxCell id="rinu5d2e3UcqFR0L71iZ-76" value="&lt;span style=&quot;color: rgb(0, 0, 0); font-family: Helvetica; font-size: 12px; font-style: normal; font-variant-ligatures: normal; font-variant-caps: normal; font-weight: 400; letter-spacing: normal; orphans: 2; text-align: center; text-indent: 0px; text-transform: none; widows: 2; word-spacing: 0px; -webkit-text-stroke-width: 0px; background-color: rgb(251, 251, 251); text-decoration-thickness: initial; text-decoration-style: initial; text-decoration-color: initial; float: none; display: inline !important;&quot;&gt;Read Noisy Image&lt;/span&gt;" style="shape=parallelogram;perimeter=parallelogramPerimeter;whiteSpace=wrap;html=1;fixedSize=1;" vertex="1" parent="WIyWlLk6GJQsqaUBKTNV-1">
          <mxGeometry x="95" y="90" width="150" height="40" as="geometry" />
        </mxCell>
        <mxCell id="rinu5d2e3UcqFR0L71iZ-80" value="" style="edgeStyle=orthogonalEdgeStyle;rounded=0;orthogonalLoop=1;jettySize=auto;html=1;" edge="1" parent="WIyWlLk6GJQsqaUBKTNV-1" source="rinu5d2e3UcqFR0L71iZ-77" target="rinu5d2e3UcqFR0L71iZ-79">
          <mxGeometry relative="1" as="geometry" />
        </mxCell>
        <mxCell id="rinu5d2e3UcqFR0L71iZ-77" value="Pad Image Symmetrically" style="whiteSpace=wrap;html=1;" vertex="1" parent="WIyWlLk6GJQsqaUBKTNV-1">
          <mxGeometry x="110" y="160" width="120" height="40" as="geometry" />
        </mxCell>
        <mxCell id="rinu5d2e3UcqFR0L71iZ-82" style="edgeStyle=orthogonalEdgeStyle;rounded=0;orthogonalLoop=1;jettySize=auto;html=1;entryX=0.5;entryY=0;entryDx=0;entryDy=0;" edge="1" parent="WIyWlLk6GJQsqaUBKTNV-1" source="rinu5d2e3UcqFR0L71iZ-79" target="rinu5d2e3UcqFR0L71iZ-81">
          <mxGeometry relative="1" as="geometry" />
        </mxCell>
        <mxCell id="rinu5d2e3UcqFR0L71iZ-79" value="3X3 window is Selected" style="whiteSpace=wrap;html=1;" vertex="1" parent="WIyWlLk6GJQsqaUBKTNV-1">
          <mxGeometry x="110" y="230" width="120" height="40" as="geometry" />
        </mxCell>
        <mxCell id="rinu5d2e3UcqFR0L71iZ-88" value="" style="edgeStyle=orthogonalEdgeStyle;rounded=0;orthogonalLoop=1;jettySize=auto;html=1;" edge="1" parent="WIyWlLk6GJQsqaUBKTNV-1" source="rinu5d2e3UcqFR0L71iZ-81" target="rinu5d2e3UcqFR0L71iZ-87">
          <mxGeometry relative="1" as="geometry" />
        </mxCell>
        <mxCell id="rinu5d2e3UcqFR0L71iZ-89" value="YES" style="edgeLabel;html=1;align=center;verticalAlign=middle;resizable=0;points=[];" vertex="1" connectable="0" parent="rinu5d2e3UcqFR0L71iZ-88">
          <mxGeometry x="-0.814" relative="1" as="geometry">
            <mxPoint x="20" y="-5" as="offset" />
          </mxGeometry>
        </mxCell>
        <mxCell id="rinu5d2e3UcqFR0L71iZ-81" value="Window pixel&lt;br&gt;!= 255 or 0" style="rhombus;whiteSpace=wrap;html=1;" vertex="1" parent="WIyWlLk6GJQsqaUBKTNV-1">
          <mxGeometry x="115" y="310.5" width="110" height="110" as="geometry" />
        </mxCell>
        <mxCell id="rinu5d2e3UcqFR0L71iZ-85" value="" style="endArrow=classic;html=1;rounded=0;exitX=1;exitY=0.5;exitDx=0;exitDy=0;" edge="1" parent="WIyWlLk6GJQsqaUBKTNV-1" source="rinu5d2e3UcqFR0L71iZ-81">
          <mxGeometry relative="1" as="geometry">
            <mxPoint x="225" y="354.65999999999997" as="sourcePoint" />
            <mxPoint x="170" y="290" as="targetPoint" />
            <Array as="points">
              <mxPoint x="260" y="366" />
              <mxPoint x="260" y="290" />
            </Array>
          </mxGeometry>
        </mxCell>
        <mxCell id="rinu5d2e3UcqFR0L71iZ-86" value="NO" style="edgeLabel;resizable=0;html=1;align=center;verticalAlign=middle;" connectable="0" vertex="1" parent="rinu5d2e3UcqFR0L71iZ-85">
          <mxGeometry relative="1" as="geometry">
            <mxPoint x="-15" as="offset" />
          </mxGeometry>
        </mxCell>
        <mxCell id="rinu5d2e3UcqFR0L71iZ-94" value="" style="edgeStyle=orthogonalEdgeStyle;rounded=0;orthogonalLoop=1;jettySize=auto;html=1;" edge="1" parent="WIyWlLk6GJQsqaUBKTNV-1" source="rinu5d2e3UcqFR0L71iZ-87" target="rinu5d2e3UcqFR0L71iZ-93">
          <mxGeometry relative="1" as="geometry" />
        </mxCell>
        <mxCell id="rinu5d2e3UcqFR0L71iZ-87" value="result = (result* window pixel)&lt;br&gt;count += 1" style="whiteSpace=wrap;html=1;" vertex="1" parent="WIyWlLk6GJQsqaUBKTNV-1">
          <mxGeometry x="75" y="450" width="190" height="40" as="geometry" />
        </mxCell>
        <mxCell id="rinu5d2e3UcqFR0L71iZ-96" value="YES" style="edgeStyle=orthogonalEdgeStyle;rounded=0;orthogonalLoop=1;jettySize=auto;html=1;" edge="1" parent="WIyWlLk6GJQsqaUBKTNV-1" source="rinu5d2e3UcqFR0L71iZ-93" target="rinu5d2e3UcqFR0L71iZ-95">
          <mxGeometry x="-1" y="20" relative="1" as="geometry">
            <mxPoint as="offset" />
          </mxGeometry>
        </mxCell>
        <mxCell id="rinu5d2e3UcqFR0L71iZ-99" style="edgeStyle=orthogonalEdgeStyle;rounded=0;orthogonalLoop=1;jettySize=auto;html=1;entryX=1;entryY=0.5;entryDx=0;entryDy=0;exitX=1;exitY=0.5;exitDx=0;exitDy=0;" edge="1" parent="WIyWlLk6GJQsqaUBKTNV-1" source="rinu5d2e3UcqFR0L71iZ-93" target="rinu5d2e3UcqFR0L71iZ-97">
          <mxGeometry relative="1" as="geometry">
            <Array as="points">
              <mxPoint x="280" y="560" />
              <mxPoint x="280" y="720" />
            </Array>
          </mxGeometry>
        </mxCell>
        <mxCell id="rinu5d2e3UcqFR0L71iZ-100" value="NO" style="edgeLabel;html=1;align=center;verticalAlign=middle;resizable=0;points=[];" vertex="1" connectable="0" parent="rinu5d2e3UcqFR0L71iZ-99">
          <mxGeometry x="-0.8274" y="3" relative="1" as="geometry">
            <mxPoint x="-14" y="-7" as="offset" />
          </mxGeometry>
        </mxCell>
        <mxCell id="rinu5d2e3UcqFR0L71iZ-93" value="count != 0" style="rhombus;whiteSpace=wrap;html=1;" vertex="1" parent="WIyWlLk6GJQsqaUBKTNV-1">
          <mxGeometry x="130" y="520" width="80" height="80" as="geometry" />
        </mxCell>
        <mxCell id="rinu5d2e3UcqFR0L71iZ-98" value="" style="edgeStyle=orthogonalEdgeStyle;rounded=0;orthogonalLoop=1;jettySize=auto;html=1;" edge="1" parent="WIyWlLk6GJQsqaUBKTNV-1" source="rinu5d2e3UcqFR0L71iZ-95" target="rinu5d2e3UcqFR0L71iZ-97">
          <mxGeometry relative="1" as="geometry" />
        </mxCell>
        <mxCell id="rinu5d2e3UcqFR0L71iZ-95" value="result = result^(1/count)" style="whiteSpace=wrap;html=1;" vertex="1" parent="WIyWlLk6GJQsqaUBKTNV-1">
          <mxGeometry x="102.5" y="630" width="135" height="40" as="geometry" />
        </mxCell>
        <mxCell id="rinu5d2e3UcqFR0L71iZ-101" style="edgeStyle=orthogonalEdgeStyle;rounded=0;orthogonalLoop=1;jettySize=auto;html=1;entryX=0;entryY=0.5;entryDx=0;entryDy=0;" edge="1" parent="WIyWlLk6GJQsqaUBKTNV-1" source="rinu5d2e3UcqFR0L71iZ-97" target="rinu5d2e3UcqFR0L71iZ-79">
          <mxGeometry relative="1" as="geometry">
            <Array as="points">
              <mxPoint x="30" y="720" />
              <mxPoint x="30" y="250" />
            </Array>
          </mxGeometry>
        </mxCell>
        <mxCell id="rinu5d2e3UcqFR0L71iZ-97" value="Denoised Image" style="rounded=1;whiteSpace=wrap;html=1;" vertex="1" parent="WIyWlLk6GJQsqaUBKTNV-1">
          <mxGeometry x="110" y="700" width="120" height="40" as="geometry" />
        </mxCell>
      </root>
    </mxGraphModel>
  </diagram>
</mxfile>
